<svg width="40" height="40" viewBox="0 0 40 40" fill="none" xmlns="http://www.w3.org/2000/svg">
<path d="M33.3333 31.6667V17.5C33.3333 17.2413 33.273 16.9861 33.1573 16.7547C33.0416 16.5233 32.8736 16.322 32.6666 16.1667L21 7.41671C20.7115 7.20034 20.3606 7.08337 20 7.08337C19.6393 7.08337 19.2885 7.20034 19 7.41671L7.33329 16.1667C7.1263 16.322 6.95829 16.5233 6.84258 16.7547C6.72687 16.9861 6.66663 17.2413 6.66663 17.5V31.6667C6.66663 32.1087 6.84222 32.5327 7.15478 32.8452C7.46734 33.1578 7.89127 33.3334 8.33329 33.3334H15C15.442 33.3334 15.8659 33.1578 16.1785 32.8452C16.491 32.5327 16.6666 32.1087 16.6666 31.6667V26.6667C16.6666 26.2247 16.8422 25.8008 17.1548 25.4882C17.4673 25.1756 17.8913 25 18.3333 25H21.6666C22.1087 25 22.5326 25.1756 22.8451 25.4882C23.1577 25.8008 23.3333 26.2247 23.3333 26.6667V31.6667C23.3333 32.1087 23.5089 32.5327 23.8214 32.8452C24.134 33.1578 24.5579 33.3334 25 33.3334H31.6666C32.1087 33.3334 32.5326 33.1578 32.8451 32.8452C33.1577 32.5327 33.3333 32.1087 33.3333 31.6667Z" fill="white" stroke="white" stroke-width="2" stroke-linecap="round" stroke-linejoin="round"/>
</svg>
