<svg width="40" height="40" viewBox="0 0 40 40" fill="none" xmlns="http://www.w3.org/2000/svg">
<path d="M6.66663 31.6667V28.3334H9.99996V16.6667C9.99996 14.3612 10.6944 12.3128 12.0833 10.5217C13.4722 8.7306 15.2777 7.55671 17.5 7.00004V3.33337H22.5V7.00004C24.7222 7.5556 26.5277 8.72949 27.9166 10.5217C29.3055 12.3139 30 14.3623 30 16.6667V28.3334H33.3333V31.6667H6.66663ZM20 36.6667C19.0833 36.6667 18.2988 36.3406 17.6466 35.6884C16.9944 35.0362 16.6677 34.2512 16.6666 33.3334H23.3333C23.3333 34.25 23.0072 35.035 22.355 35.6884C21.7027 36.3417 20.9177 36.6678 20 36.6667Z" fill="white"/>
</svg>
